# xmcd CD database file
#
# Track frame offsets:
#	150
#	11658
#	26604
#	40350
#	56967
#	72249
#	89805
#	109215
#	121906
#	135816
#	149178
#	167906
#
# Disc length: 2501 seconds
#
# Revision: 2
# Processed by: cddbd v1.4b41PL1 Copyright (c) Steve Scherf et al.
# Submitted via: Feurio! 1.50.2ß - http://www.feurio.com
#
DISCID=b409c30c
DTITLE=Nena - Nena
DYEAR=1900
DGENRE=
TTITLE0=Mitten in der Nacht
TTITLE1=Indianer
TTITLE2=Heute ist Vollmond
TTITLE3=Ich hab nur von Dir geträumt
TTITLE4=Tanz auf dem Vulkan
TTITLE5=99 Luftballons
TTITLE6=Zaubertrick
TTITLE7=Anfang
TTITLE8=Kapitän
TTITLE9=Zu hause
TTITLE10=Noch einmal
TTITLE11=ohne
EXTD=
EXTT0=
EXTT1=
EXTT2=
EXTT3=
EXTT4=
EXTT5=
EXTT6=
EXTT7=
EXTT8=
EXTT9=
EXTT10=
EXTT11=
PLAYORDER=
